# xmcd CD database file
#
# Track frame offsets:
#	187
#	14562
#	27627
#	40815
#	55725
#	69547
#	83857
#	97080
#	111572
#	126740
#	137937
#	152500
#	167172
#	180762
#	193557
#	207997
#	222800
#	234795
#	247520
#	259335
#	278607
#	295225
#
# Disc length: 4073 seconds
#
# Revision: 0
# Processed by: cddbd v1.5.2PL0 Copyright (c) Steve Scherf et al.
# Submitted via: CDex 1.51
#
DISCID=400fe716
DTITLE=Cab Calloway - 1930-1931/1961
DYEAR=1900
DGENRE=Blues
TTITLE0=gotta darn good reason now
TTITLE1=is that religion
TTITLE2=some of these days
TTITLE3=nobody's sweetheart
TTITLE4=st. james infirmary
TTITLE5=minnie the moocher
TTITLE6=doin' the rhumba
TTITLE7=black rhythm
TTITLE8=six or seven times
TTITLE9=bugle call rag
TTITLE10=you rascal you
TTITLE11=ain't got no gal in this town
TTITLE12=between the devil and the deep blue sea
TTITLE13=trickeration
TTITLE14=kickin' the gong around
TTITLE15=basin street blues
TTITLE16=the birth of the blues
TTITLE17=cry me a river
TTITLE18=st. louis blues
TTITLE19=one for my baby (and one more for the road)
TTITLE20=learnin' the blues
TTITLE21=blues my naughty sweetie gives to me
EXTD=
EXTT0=
EXTT1=
EXTT2=
EXTT3=
EXTT4=
EXTT5=
EXTT6=
EXTT7=
EXTT8=
EXTT9=
EXTT10=
EXTT11=
EXTT12=
EXTT13=
EXTT14=
EXTT15=
EXTT16=
EXTT17=
EXTT18=
EXTT19=
EXTT20=
EXTT21=
PLAYORDER=
